<svg width="2509" height="321" viewBox="0 0 2509 321" fill="none" xmlns="http://www.w3.org/2000/svg">
<path d="M211.134 48.1067C233.024 48.1067 250.46 55.2336 263.441 69.4875C276.677 83.7414 283.295 102.831 283.295 126.758V244.352H234.042V130.194C234.042 118.74 231.243 109.831 225.643 103.468C220.043 97.1044 212.153 93.9227 201.971 93.9227C190.772 93.9227 181.99 97.6135 175.627 104.995C169.518 112.376 166.464 123.067 166.464 137.066V244.352H117.212V130.194C117.212 118.74 114.412 109.831 108.812 103.468C103.212 97.1044 95.3217 93.9227 85.1403 93.9227C74.1954 93.9227 65.414 97.6135 58.7961 104.995C52.4328 112.376 49.2511 123.067 49.2511 137.066V244.352H-0.00112491V53.4519H49.2511V73.6873C60.7051 56.6336 78.3952 48.1067 102.321 48.1067C125.738 48.1067 143.047 57.2699 154.246 75.5963C166.973 57.2699 185.936 48.1067 211.134 48.1067ZM366.742 169.137C373.36 193.064 391.304 205.027 420.576 205.027C439.411 205.027 453.665 198.663 463.337 185.937L503.045 208.845C484.209 236.08 456.465 249.697 419.812 249.697C388.25 249.697 362.924 240.152 343.834 221.062C324.744 201.972 315.199 177.919 315.199 148.902C315.199 120.14 324.617 96.2135 343.452 77.1235C362.288 57.779 386.468 48.1067 415.994 48.1067C443.993 48.1067 467.028 57.779 485.1 77.1235C503.426 96.4681 512.59 120.394 512.59 148.902C512.59 155.265 511.953 162.01 510.681 169.137H366.742ZM365.978 130.957H463.337C460.538 117.976 454.683 108.304 445.775 101.941C437.12 95.5772 427.194 92.3955 415.994 92.3955C402.758 92.3955 391.813 95.8317 383.159 102.704C374.505 109.322 368.778 118.74 365.978 130.957ZM650.575 100.795H607.431V180.21C607.431 186.827 609.086 191.664 612.395 194.718C615.704 197.772 620.54 199.554 626.903 200.063C633.266 200.318 641.157 200.19 650.575 199.681V244.352C616.722 248.17 592.796 244.988 578.796 234.807C565.051 224.626 558.179 206.427 558.179 180.21V100.795H524.962V53.4519H558.179V14.8901L607.431 -0.000154014V53.4519H650.575V100.795ZM824.419 53.4519H873.671V244.352H824.419V221.826C809.656 240.407 788.912 249.697 762.186 249.697C736.732 249.697 714.842 240.025 696.516 220.68C678.444 201.081 669.408 177.155 669.408 148.902C669.408 120.649 678.444 96.8499 696.516 77.5053C714.842 57.9062 736.732 48.1067 762.186 48.1067C788.912 48.1067 809.656 57.3972 824.419 75.9781V53.4519ZM733.551 187.846C743.477 197.772 756.077 202.736 771.349 202.736C786.621 202.736 799.22 197.772 809.147 187.846C819.328 177.664 824.419 164.683 824.419 148.902C824.419 133.121 819.328 120.267 809.147 110.34C799.22 100.159 786.621 95.0681 771.349 95.0681C756.077 95.0681 743.477 100.159 733.551 110.34C723.624 120.267 718.66 133.121 718.66 148.902C718.66 164.683 723.624 177.664 733.551 187.846ZM1133.29 53.4519H1185.59L1124.89 244.352H1077.93L1042.8 128.667L1007.67 244.352H960.713L900.007 53.4519H952.313L984.766 170.665L1019.51 53.4519H1066.09L1100.83 171.046L1133.29 53.4519ZM1349.77 53.4519H1399.02V244.352H1349.77V221.826C1335 240.407 1314.26 249.697 1287.53 249.697C1262.08 249.697 1240.19 240.025 1221.86 220.68C1203.79 201.081 1194.76 177.155 1194.76 148.902C1194.76 120.649 1203.79 96.8499 1221.86 77.5053C1240.19 57.9062 1262.08 48.1067 1287.53 48.1067C1314.26 48.1067 1335 57.3972 1349.77 75.9781V53.4519ZM1258.9 187.846C1268.83 197.772 1281.43 202.736 1296.7 202.736C1311.97 202.736 1324.57 197.772 1334.5 187.846C1344.68 177.664 1349.77 164.683 1349.77 148.902C1349.77 133.121 1344.68 120.267 1334.5 110.34C1324.57 100.159 1311.97 95.0681 1296.7 95.0681C1281.43 95.0681 1268.83 100.159 1258.9 110.34C1248.97 120.267 1244.01 133.121 1244.01 148.902C1244.01 164.683 1248.97 177.664 1258.9 187.846ZM1569.29 53.4519H1623.51L1550.97 244.352H1494.84L1422.3 53.4519H1476.52L1522.71 187.082L1569.29 53.4519ZM1681.42 169.137C1688.04 193.064 1705.98 205.027 1735.25 205.027C1754.09 205.027 1768.34 198.663 1778.01 185.937L1817.72 208.845C1798.88 236.08 1771.14 249.697 1734.49 249.697C1702.93 249.697 1677.6 240.152 1658.51 221.062C1639.42 201.972 1629.87 177.919 1629.87 148.902C1629.87 120.14 1639.29 96.2135 1658.13 77.1235C1676.96 57.779 1701.14 48.1067 1730.67 48.1067C1758.67 48.1067 1781.7 57.779 1799.78 77.1235C1818.1 96.4681 1827.27 120.394 1827.27 148.902C1827.27 155.265 1826.63 162.01 1825.36 169.137H1681.42ZM1680.65 130.957H1778.01C1775.21 117.976 1769.36 108.304 1760.45 101.941C1751.8 95.5772 1741.87 92.3955 1730.67 92.3955C1717.43 92.3955 1706.49 95.8317 1697.83 102.704C1689.18 109.322 1683.45 118.74 1680.65 130.957ZM1897.9 239.77C1891.54 246.134 1883.9 249.315 1875 249.315C1866.09 249.315 1858.45 246.134 1852.09 239.77C1845.72 233.407 1842.54 225.771 1842.54 216.862C1842.54 207.954 1845.72 200.318 1852.09 193.954C1858.45 187.591 1866.09 184.409 1875 184.409C1883.9 184.409 1891.54 187.591 1897.9 193.954C1904.27 200.318 1907.45 207.954 1907.45 216.862C1907.45 225.771 1904.27 233.407 1897.9 239.77ZM2059.63 48.1067C2085.33 48.1067 2107.22 57.9062 2125.3 77.5053C2143.62 96.8499 2152.79 120.649 2152.79 148.902C2152.79 177.155 2143.62 201.081 2125.3 220.68C2107.22 240.025 2085.33 249.697 2059.63 249.697C2032.9 249.697 2012.28 240.407 1997.77 221.826V320.712H1948.52V53.4519H1997.77V75.9781C2012.28 57.3972 2032.9 48.1067 2059.63 48.1067ZM2012.67 187.846C2022.59 197.772 2035.19 202.736 2050.46 202.736C2065.74 202.736 2078.33 197.772 2088.26 187.846C2098.44 177.664 2103.53 164.683 2103.53 148.902C2103.53 133.121 2098.44 120.267 2088.26 110.34C2078.33 100.159 2065.74 95.0681 2050.46 95.0681C2035.19 95.0681 2022.59 100.159 2012.67 110.34C2002.74 120.267 1997.77 133.121 1997.77 148.902C1997.77 164.683 2002.74 177.664 2012.67 187.846ZM2236.77 86.2867C2241.35 74.0691 2248.86 64.9059 2259.3 58.7971C2269.99 52.6883 2281.83 49.6339 2294.81 49.6339V104.613C2279.79 102.831 2266.3 105.886 2254.34 113.776C2242.63 121.667 2236.77 134.775 2236.77 153.102V244.352H2187.52V53.4519H2236.77V86.2867ZM2479.17 220.68C2459.58 240.025 2435.65 249.697 2407.4 249.697C2379.14 249.697 2355.22 240.025 2335.62 220.68C2316.27 201.081 2306.6 177.155 2306.6 148.902C2306.6 120.649 2316.27 96.8499 2335.62 77.5053C2355.22 57.9062 2379.14 48.1067 2407.4 48.1067C2435.65 48.1067 2459.58 57.9062 2479.17 77.5053C2498.77 96.8499 2508.57 120.649 2508.57 148.902C2508.57 177.155 2498.77 201.081 2479.17 220.68ZM2370.36 186.7C2380.29 196.627 2392.63 201.59 2407.4 201.59C2422.16 201.59 2434.5 196.627 2444.43 186.7C2454.36 176.773 2459.32 164.174 2459.32 148.902C2459.32 133.63 2454.36 121.031 2444.43 111.104C2434.5 101.177 2422.16 96.2135 2407.4 96.2135C2392.63 96.2135 2380.29 101.177 2370.36 111.104C2360.69 121.031 2355.85 133.63 2355.85 148.902C2355.85 164.174 2360.69 176.773 2370.36 186.7Z" fill="url(#paint0_linear_31_29)"/>
<defs>
<linearGradient id="paint0_linear_31_29" x1="-22.5273" y1="139.852" x2="2521.47" y2="139.852" gradientUnits="userSpaceOnUse">
<stop stop-color="#B883E7"/>
<stop offset="0.5" stop-color="#ACDBE2"/>
<stop offset="1" stop-color="#52BCE4"/>
</linearGradient>
</defs>
</svg>
